0
SECTION
2
HEADER
9
$ACADVER
1
AC1009
0
ENDSEC
0
SECTION
2
TABLES
0
TABLE
2
LAYER
70
5
0
LAYER
2
0
70
0
62
7
6
CONTINUOUS
0
LAYER
2
TUONG
70
0
62
1
6
CONTINUOUS
0
LAYER
2
CUA
70
0
62
3
6
CONTINUOUS
0
LAYER
2
NOITHAT
70
0
62
2
6
CONTINUOUS
0
LAYER
2
CHU
70
0
62
4
6
CONTINUOUS
0
ENDTAB
0
ENDSEC
0
SECTION
2
ENTITIES
0
LINE
8
TUONG
62
1
10
0.0
20
0.0
30
0.0
11
1500.0
21
0.0
31
0.0
0
LINE
8
TUONG
62
1
10
2400.0
20
0.0
30
0.0
11
4000.0
21
0.0
31
0.0
0
LINE
8
TUONG
62
1
10
4000.0
20
0.0
30
0.0
11
4000.0
21
3000.0
31
0.0
0
LINE
8
TUONG
62
1
10
4000.0
20
3000.0
30
0.0
11
0.0
21
3000.0
31
0.0
0
LINE
8
TUONG
62
1
10
0.0
20
3000.0
30
0.0
11
0.0
21
0.0
31
0.0
0
LINE
8
CUA
62
3
10
1500.0
20
0.0
30
0.0
11
1500.0
21
900.0
31
0.0
0
ARC
8
CUA
62
3
10
1500.0
20
0.0
30
0.0
40
900.0
50
0.0
51
90.0
0
CIRCLE
8
NOITHAT
62
2
10
3000.0
20
2000.0
30
0.0
40
450.0
0
TEXT
8
CHU
62
4
10
1100.0
20
1500.0
30
0.0
40
300.0
1
PHONG MAU
0
TEXT
8
CHU
62
4
10
1100.0
20
1100.0
30
0.0
40
200.0
1
4000 x 3000 mm
0
ENDSEC
0
EOF
